<?xml version="1.0" encoding="UTF-8"?>
<svg id="Capa_1" data-name="Capa 1" xmlns="http://www.w3.org/2000/svg" viewBox="0 0 94.95 83.36">
  <defs>
    <style>
      .cls-1 {
        fill: #fff;
      }
    </style>
  </defs>
  <g>
    <path class="cls-1" d="M56.46,49.84c0,.11-.09,.2-.2,.2l-7.87-.07c0,.14-.03,.37-.38,.37s-.7,0-1.09,0c-.39,0-.38-.27-.37-.37l-7.73,.07c-.11,0-.2-.09-.2-.2s.09-.2,.2-.2l7.98-.07c.13-.17,.23-.3,.41-.41,.06-.05,.11-.08,.17-.09v-3.01h.16v3c.05,0,.11,.03,.16,.06,.16,.08,.36,.26,.5,.45l8.08,.07c.11,0,.2,.09,.2,.2Zm-.3-.2v.22h-17.24v-.22l.71-.93s2.08-3.47,2.26-3.79c1.53,.36,3.44-.54,4.76-.4,.08,.18,.31,.73,.31,.73l.19,.62,.29,.24,.26-.22,.23-.69s.1-.24,.23-.55c1.23-.42,3.52,.41,4.84,.13,.19,.32,2.27,3.89,2.32,3.9,.05,.02,.83,.96,.83,.96Zm-8.88-.72c-.41-.78-4.82,.61-7.65,.13-.06,.07-.52,.65-.52,.65h7.46s.13-.55,.71-.78Zm.15-2.71l-.33-.31-.23-.58s-.14-.33-.22-.53c-.77-.31-3.2,.61-4.57,.4-.19,.27-2.2,3.49-2.32,3.69,2.19,.46,5.61-.5,6.93-.41,.6,.09,.73,.39,.73,.39v-2.63Zm.77,2.25c1.32-.09,4.65,.63,6.84,.17-.13-.2-1.94-3.37-2.13-3.65-1.37,.21-3.9-.51-4.67-.2-.08,.2-.22,.53-.22,.53l-.23,.58-.33,.31v2.63s.13-.3,.74-.39Zm7.62,1.24s-.67-.81-.72-.88c-2.8,.65-7.04-.68-7.45,.1,.58,.23,.71,.78,.71,.78h7.46Z"/>
    <path class="cls-1" d="M33.15,27.66s-.2-.1-.31-.07c-.01,0-.26-.12-.25-.31,.07,.03,.63,.22,.63,.22l-.07,.15Zm.12-.25l.06-.13-.65-.45-.08,.29,.67,.29Zm-.53-.7l.2-.3,.57,.69-.1,.11-.67-.5Zm.87,.31l.2-.11-.35-.86-.44,.27,.59,.7Zm-.04-1.02l.39-.02,.11,.84-.15,.05-.34-.87Zm33.51-2.94c-.15,.12-1.39,1.69-1.49,1.96-.1,.26-2.04,3.03-2.35,3.3-1.6,1.33-1.66,1.72-1.86,2.06-2.93,5.74-8.15,8.28-8.48,8.45-2.71,1.45-3.34,3.23-3.34,3.23,0,0-.94,1.92-1.64,3.59-.23,.72-.72,.79-.98,0-.14-.54-1.58-3.37-2.02-3.94-.54-.72-.79-1.29-2.7-2.51-4.35-1.84-7.47-5.05-10.05-9.84-.18-.64-2.17-1.33-2.8-3.27-.57-.36-1.81-1.88-1.81-1.88,0,0-3.11-.64-2.83-4.28-3.36-.21-1.76-2.69-1.7-3.35-.7-1.29-.19-2.51-.75-3.76,.75,1.01,2.01,.83,2.01,.83,0,0-.05-.79-1.34-1.42,1.8-.37,2.35,.19,2.53,.44,.99-.1,1.78,.36,1.78,.36,0,0,.51-.42-.88-1.06,2.47-.4,2.1,2.16,3.89,3.35,.3,.2,4.56,1.76,3.27,5.89,1.28,1.81,1.63,3.57,1.63,3.57,0,0-.01,.86,.41,1.47,.43,.61,5.37,9.23,7.6,11.16,.56,.53,1.14,.52,1.14,.52h1.93l-.13-.72-.18-.26s-.19-.73,0-.93c.55-2.62,2.68-1.47,2.76,0,.24,.28,0,.88,0,.88l-.2,.28-.04,.74s1.21-.03,1.4-.01c.66,0,.96-.19,1.25-.35,1.53-.87,7.75-11.55,7.75-11.55,0,0,.03-1.71,.53-2.52,.49-.81,1.58-2.68,1.66-2.87,.21-.4,.47-.51,.47-.51,0,0,.56-.32,.76-.52,.19-.2,.39,.04,.45,.17,.12,.56-.15,1.32-.15,1.32l.75-.03,.08-.72s.19-.28,.52-.26c.33,.02,.51,.31,.51,.31,0,0,.19,.09,.28,.13,.55,.34,1.29,1.7,1.29,1.7,0,0,.22-.18,.26-.59,.25-.69,.6-.83,.72-.9,.22-.11,.59,.08,.59,.08,0,0-.06,.72,0,.98,.06,.26-.33,1.17-.49,1.29ZM27.68,15.93c.74-.01,.93-.77,2.6-.44-1.12-.81-1.96-1.62-2.08-1.91-.04,.04-.11,.23-.13,.36-.17-.12-.29-.23-.39-.72-.2,.06-.81,1.41,0,2.71Zm-.72-1.23c-.06-.11-1.28-.78-2.48-.68,1.5,.55,1.28,3.41,1.28,3.41,0,0,1.21-1.24,1.73-1.42-.16-.19-.58-.57-.52-1.32Zm-1.51-1.71s.57,.48,.73,.94c.43,.1,.53,.18,.89,.41,.24-1.23-1.61-1.35-1.61-1.35Zm-.92,.73c.53-.03,1.02,.09,1.35,.22-.06-.64-1.34-1.15-1.34-1.15,0,0,.27-.11,.59-.09-.37-.51-1.57-.35-1.57-.35,0,0,.97,.43,.97,1.37Zm-1.34,2.71s1.96-1.91-.49-2.89c.09,.41,.24,1.23,.09,1.61,0,.31,.39,1.29,.39,1.29Zm2.28,1.23c.22-.47-.11-2.09-.11-2.09,0,0-.44-.77-1.08-1.14,.43,1.74-3.59,4.5,.45,5.31,.62,0-.09-1.29,.75-2.08Zm1.81,6.21l-.65-1.38-.05-.71s-.17-.41-.31-.59c.03-.15,.3-.46,.75-.32,.53-3.98,5.35-3.71,5.81-.71,.06,.19,.45,.69,.66,.61,.25-.46,.29-5.36-4.37-4.69-1.19,.17-4.29,1.98-3.97,5.21,.25,1.97,2.13,2.58,2.13,2.58Zm5.35-3.84c-.4-2.48-4.97-2.97-5.44,.93,.3,.14,.38,.34,.45,.4-.16-1.77,2.45-3.48,4.06-1.89,.14,.18,.31,.24,.45,.25,.14,.01,.31,.19,.48,.31Zm-.62-.25c-.13-.02-.28-.1-.34-.21-.02,0-.07-.04-.1,.08-.05,.26,.5,.51,.5,.51,0,0,.04-.12,.22-.13,.03-.02-.14-.23-.27-.25Zm-2.78,.94l.36-.28-.23-.28-.36,.28,.24,.28Zm-.34-.18l-.25,.28,.21,.27,.24-.27-.2-.28Zm.82-.16l.37-.22-.26-.36-.37,.2,.26,.38Zm.52-.25h.31l-.23-.47-.33,.09,.25,.39Zm-.3,.58c.19,.03,.52,.04,.72-.18,.1-.22-.06-.31-.14-.24-.09,.06-.61,.08-.67,.2-.06,.12,.01,.21,.09,.22Zm1.16,.35l.23-.03-.57-1.34-.3-.03,.65,1.41Zm.4-.07l.27,.04-.56-1.16-.29-.12,.57,1.25Zm.05-1.5c-2.2-1.34-3.96,.97-3.72,2.06-.01,.12-.11,.08-.11,.08,0,0,.05,.68,.06,.83,.04,.29,.16,.26,.18,.07,.02-.09,.11-.66,.47-.94-.27-.9,1.42-2.84,2.94-1.76,0-.15,.08-.26,.18-.33Zm-4.47,1.69c-.05-.12-.66-.29-.48,.09,.17,.37,.19,.44,.19,.7,.06-.05,.2-.11,.3,0,.07-.05,.05-.66,0-.78Zm37.1,4.11c-.15-.67-.48-.43-.79-.46,.04,.27-.09,.89-.09,.91,0,.03-.07-.96-.19-.96-.14,.49-.54,.84-.54,.84,0,0,.25-.38,.24-.79-.3,.55-1.69,1.3-1.69,1.3,0,0,1.16-.71,1.7-1.54-.93,1.04-3.23,1.53-3.5,1.55-.02,.64,.57,.69,.71,.72-.28,.32-.64,.96-.64,.96,0,0,.18-.78,.08-1.09-.05-.09-.21-.1-.28,.02-.39,.96-3.33,5.11-3.52,5.38-.19,.26-3.18,5.21-5.04,6-1.3,.03-2.15,.11-2.15,.11,0,0,.02-.19-.18-.19-.57,.39-1.67,.16-1.82,0-.16,.03-.21,.08-.33,.24-.64-.15-2.03,.05-2.51-.14-.36-.08-1.82-1.42-2.44-1.98-1.25-1.27-3.29-4.79-3.29-4.79l-2.31-4.66s-.5-.66-.7-1.99c-.2-1.33-.96-2.43-.96-2.43,0,0-1.1-1.95-1.5-2.11-.21-.1-.33,.1-.33,.1,0,0-.45-.17-.57-.42,0,.45,.24,.63,.33,.72,.45,.21,.9,.76,1.02,.9,.35,.36,.76,2.09,1.02,2.31,.18,.6,.56,.47,.68,.83,.43,.45,.32,1.88,.57,2.24,.24,.82,.55,1.44,.78,1.64,.68,3.35-1.36,2.08-1.36,2.08l-2.48-2.79-.41-.05-.06-.18h-.44s.15-.98-.35-.92c-.17,.12-.08,.37-.08,.37l-.8-.74-.03-.94h-.43s-.12-1.21,.34-2.01c.08-.14,.24-.04,.24-.04l.81-.64,.05-.22,.97,.08s.42,.07,.53-.08c-.19,0-.29,.04-.36-.05-.14-.07-.13-.29-.13-.29,0,0-.36-.1-.6-.03-.28,0-.53,.11-.67,.17-.63,.36-1.09,.89-1.23,1.05-.12,.37-.33,1.67-.33,1.67,0,0-.04-1.69,.06-1.93,.09-.11,.26-.06,.26-.06l.68-.99,.08-.06s0,.16,.04,.18c.1,.15,.38,.02,.38,.02l.1-.14,.13-.25,.19-.06s.41,.15,.43,.15c.03,0,.48,.09,.51,.09s.22,0,.3,0c.15-.06,.05-.19,.05-.19,0,0-.3,.05-.46-.04-.07-.03-.22-.26-.14-.37-.2-.13-.51-.09-.96-.09-.19-.02-.32,.07-.46,.17-.66,.41-1.38,1.28-1.45,1.48-.07,.2-.08,1.02-.08,1.02,0,0-.24-.71-.34-.78-.1-.07-.18-.08-.18-.08,0,0,.12-.06,.14-.16,.14-.11,.7-1.55,1.02-1.76,.01,.49,.53,.27,.7,.23,.43-.18,.51-.6,.51-.6,0,0-.36,.23-.71,.14-.12-.03-.24-.13-.23-.26-.64,.16-1.52,1.62-1.55,1.92-.17,.3-.17,.67-.09,.81-.03,.44,.54,1.43,.54,1.43,0,0-.84-.73-.96-1.22-.12-.29-.07-.59-.07-.59,0,0-.39-.36-.44-.76-.44-.16-.28,.29-.28,.29l.69,1.37s1.61,1.94,2.02,2.13c.57,1.44,2.29,2.7,2.4,2.79,.36,.14,.44,.28,.54,.55,.29,.75,1.81,2.02,1.96,2.14,1.39,.11,1.29,1.54,1.5,2.09,2.55,3.07,4.78,4.76,7.53,5.51,1.05,.22,.84-.07,.97-.44,.62,3.76,2.69,2.31,2.75,2.21-.88,1.8-2.38-.31-2.49-.3,.15,.52,1.4,2.18,1.55,2.41,1.33-1.29,1.99-.27,2.26,0,1.24-1.2,1.68-2.93,1.5-2.82-1.64,2.54-2.61,.77-2.57,.69,.57,.39,2.07,.8,2.72-2.24,.07,.29,.18,.64,.24,.85,.14,.41,.33,.19,.51,.1,1.18-1.14,5.6-3.06,7.42-5.7,.3-.62,1.7-1.74,1.62-5.42-.23-.04-1.38,1.56-1.38,1.56,0,0,1.74-2.5,2.01-3.15-.28,1.63,1.55,.94,1.61,.85,.91-.49,1.6-1.27,1.98-2.34Zm-29.38,1.21c0-.26-.13-.5-.38-.6-.91-.3-1.81,.25-1.96,1.22,0,.29,.22,.65,.52,.65,.21,0,.39,.25,.39,.25,0,0,1.06,1.26,1.29,1.33,.49,.22,.94-.09,.84-.61-.04-.22-.7-1.72-.7-1.72,0,0-.11-.2-.02-.53Zm-.6-1.19c-.2-.14-.7-.36-1.35-.03-.24,.12-.95,.58-1.06,1.14-.07,.57,.39,.69,.53,.66,.2-1.58,1.66-1.51,2.03-1.35,.25,.01,0-.28-.15-.41Zm.09-.32c-.08-.08-.38-.34-.7-.35-.28-.02-1.35,.15-1.97,1.24-.07,.4,.1,.27,.13,.17,.26-.42,1.44-1.63,2.45-.87,.06,.03,.24,.05,.09-.19Zm-2.53-2.37h-.37l1.12,2.18,.21-.11-.97-2.08Zm1.07,2.03l.2-.05-.89-1.97h-.26l.94,2.03Zm-1.56-1.98h-.21l-.06,.17,1.25,2.16,.15-.11-1.14-2.21Zm-.35,.27h-.23l-.05,.19,1.32,2.1,.18-.18-1.23-2.11Zm-.34,.28h-.21l-.07,.15,1.46,2.08,.12-.13-1.31-2.09Zm-.36,.23s-.23-.04-.23-.04c0,0,0,.28,0,.3l1.59,2.07,.13-.24s-1.49-2.06-1.49-2.09Zm3.16,1.1l-.84-1.93h-.21l.84,1.93h.21Zm-1.35-2.45s0,.13,.12,.18c.09,.06,.23,.06,.46-.03,.13-.29-.58-.15-.58-.15Zm-.12-.54s.25,.12,.42,.02c.17-.1,.04-.16,.04-.16,0,0-.37-.17-.5-.1-.13,.07,.04,.24,.04,.24Zm1.7,6.32c.02,.12,.33,.38,.33,.38,0,0,.93,.83,.95,.84,.3,.07,.45-.09,.48-.34-.02-.02-.48-1.21-.48-1.21,0,0-.13-.36-.24-.4-.55,.05-.92,.33-1.04,.72Zm-.16-.12c.27-.58,.92-.71,1.2-.74,.03,0,.12-.09,0-.14-.48-.09-1.28,.42-1.33,.81,0,.1,.04,.13,.13,.07Zm1.15-1.01s0-.22,.08-.3c0-.01,.02-.35-.2-.29,0,.08-.04,.59-.04,.59h.17Zm-.4,.03l.14-.03,.04-.66-.26-.1,.09,.79Zm13,18.93c.19,.4,.35,.37,.56,0-.07-.31,1.07-2.29,.74-2.63-.78-.8-1.33-.7-2.14,.05-.12,.78,.85,1.92,.85,2.58Zm12.73-21.47c-.43,.23-.52,1.52-.47,1.62,1.01,.13,3.2-1.3,3.37-1.5-.06-.47,.46-.79,.86-.58,.14-.46-.32-.66-.32-.66,0,0-.09,.11-.22,.04-.47,.38-1.13,.41-1.62,.13-.1-.02-.07-.16-.07-.16,0,0,.48-.32,.36-.67-.33-.07-.32-.66,0-.75-.14-.03-.31-.06-.44,0-.91,1.86-.83,2.16-1.45,2.55Zm3.48-.4c-.25,0-.45,.19-.45,.43s.2,.43,.45,.43,.45-.19,.45-.43-.2-.43-.45-.43Zm0,.32c-.06,0-.11,.05-.11,.11s.05,.1,.11,.1,.11-.05,.11-.1-.05-.11-.11-.11Zm-1.58-1.83c.12,.04,.42,.11,.59-.05,.04,.03,.38,.18,.8,.11,.03-.08,.06-.27,.06-.27,0,0,0,.08,.02,.27,0,.19,1.04,.8,1.04,.8,0,0,.39,.08,.3-.31-.18-.48-1.36-1.14-2.18-1.08,.09,.4-.79,.33-.79,.33,0,0,.06,.16,.15,.2Zm3.24,2.71c.29,.12,.41,.1,.46-.31,.14-.51,1.12-1.04,1.29-1.92,.45-.93-.1-.52-.1-.52,0,0-.03-.16,.04-.39-.06-.25-.35-.09-.35-.09,0,0-.13,.6-.69,.6-.15,.09,0,.32,.09,.35,.1,.04,.19,.07,.19,.07,0,0-.14,.01-.21,.06,.08,.12-.07,.7-.22,.76-.07-.21-.12-.83-.13-.94-.09,.13-.14,.28-.35,.25,0,.18,.05,1.31,.05,1.31l-.31-1.11s-.03,.27-.3,.23c.24,.58,.24,1.53,.53,1.66Zm-2.68-3.25c-.14-.04-.23-.08-.39-.08-.12,.05-.38,.21-.32,.31,.15,.03,.75-.02,.7-.24Zm2.56,.98c.31,.13,.4-.07,.37-.33-.03-.25-.75-.66-.82-.68-.08-.02-.43-.17-.26,.18,.2,.41,.62,.78,.71,.83Zm-.9-1.02c.04-.1,.11-.24,.31-.22-.38-.16-.61-.27-.63-.38-.29-.05-.76,0-.86,.04-.01,.11-.01,.24-.22,.38,.28,.14,1.39,.18,1.41,.18Zm-1.52-.21c.05,0,.28-.21,.22-.33-.35-.1-.45,.02-.69-.02-.22,.47,.42,.36,.47,.36Zm-.65-.08c-.06-.2,.05-.46,.18-.41,.13,.04,.29-.08,.43,0-.04-.35,.28-.72,.13-1.13-.1-.15-.3-.1-.31-.02-.02,.21-.1,.23-.19,.34-.11,0-.18,.08-.18,.17,0,.12-.28,.36-.33,.9,.03,.22,.28,.15,.28,.15Zm4.93,.26c0,.14,.54-.47,.63-.65,.09-.18-.18-.34-.19-.21-.01,.15-.93,.79-.72,.77,.21-.02,.28-.06,.29,.08Zm-1.35,.6l.44-.11s-.71-1.21-1.14-1.53c-.02-.03-.12-.18-.25-.08-.1,.05-.3,.42-.78-.06-.07-.1-.12,0-.12,0,0,0,.31,.88,.88,.61,.09,0,.26,.05,.37,0,.12,.44,.5,.65,.5,.65l.12,.52Zm-1.06-1.82c-.19-.08-.22-.23-.43-.32-.08-.03-.36-.04-.29,.2,.52,.61,.7,.17,.72,.13Zm-18.1,16.64c.66,1.01,1.63,.95,2.09-.03,.08-.07,.12-.21,.12-.21,0,0,.19-.48,.08-.9-.43-1.7-2.03-2.03-2.46,.03-.23,.29,.01,.78,.04,.85,0,.1,.09,.21,.12,.25Z"/>
    <path class="cls-1" d="M74.12,19.36c0-.86-1.59-1.63-4.01-2.07,1.39-2.03,1.98-3.69,1.37-4.3-.61-.61-2.27-.02-4.3,1.37-.45-2.42-1.21-4.01-2.08-4.01s-1.63,1.59-2.08,4.01c-2.03-1.39-3.69-1.98-4.3-1.37-.61,.61-.02,2.28,1.37,4.3-2.42,.45-4.01,1.21-4.01,2.07s1.59,1.63,4.01,2.08c-1.39,2.03-1.98,3.69-1.37,4.3,.61,.61,2.28,.02,4.3-1.37,.45,2.42,1.21,4.01,2.08,4.01s1.62-1.59,2.08-4.01c2.03,1.39,3.69,1.98,4.3,1.37,.61-.61,.02-2.28-1.37-4.3,2.42-.45,4.01-1.21,4.01-2.08Zm-2.85-6.17c.56,.56-.02,2.13-1.36,4.06-.74-.13-1.55-.23-2.41-.3-.07-.86-.17-1.67-.29-2.41,1.93-1.34,3.5-1.92,4.06-1.36Zm-3.86,6.17c0,.32,0,.64-.02,.95-.21,.23-.43,.45-.66,.68-.23,.23-.45,.45-.68,.66-.32,0-.63,.01-.95,.01s-.64,0-.95-.01c-.23-.22-.45-.44-.68-.67-.23-.23-.45-.45-.66-.68-.01-.31-.02-.63-.02-.95s0-.64,.02-.95c.21-.23,.43-.46,.66-.68,.23-.23,.46-.45,.68-.66,.31,0,.63-.01,.95-.01s.64,0,.95,.01c.23,.22,.45,.44,.68,.66,.23,.23,.45,.46,.66,.68,.01,.31,.02,.63,.02,.95Zm-.55-1.76c-.18-.18-.36-.35-.54-.52,.34,.01,.68,.03,1.01,.05,.02,.33,.04,.67,.05,1.01-.17-.18-.35-.36-.52-.54Zm-.74-.71c-.3-.28-.59-.54-.89-.8,.62-.53,1.23-1.01,1.81-1.42,.12,.7,.21,1.46,.27,2.28-.39-.03-.79-.05-1.19-.06Zm-.28,0c-.25,0-.5-.01-.75-.01s-.5,0-.75,.01c.25-.23,.5-.46,.75-.67,.25,.22,.5,.44,.75,.67Zm-1.77,0c-.41,.01-.81,.03-1.19,.06,.06-.82,.16-1.58,.27-2.28,.58,.41,1.19,.89,1.81,1.42-.3,.26-.59,.52-.89,.8Zm-.2,.19c-.18,.17-.36,.34-.54,.52-.18,.18-.35,.36-.52,.54,.01-.34,.03-.68,.05-1.01,.33-.02,.66-.04,1.01-.05Zm-1.25,1.26c-.28,.3-.54,.59-.8,.89-.53-.62-1.01-1.23-1.42-1.81,.7-.12,1.47-.21,2.28-.28-.03,.39-.05,.79-.06,1.2Zm0,.28c0,.25,0,.5,0,.75s0,.5,0,.75c-.23-.25-.46-.5-.67-.75,.22-.25,.44-.5,.67-.75Zm0,1.78c.01,.41,.04,.8,.06,1.19-.82-.06-1.58-.16-2.28-.28,.41-.58,.89-1.18,1.42-1.8,.26,.29,.52,.59,.8,.89Zm.19,.2c.17,.18,.35,.35,.52,.53,.18,.18,.36,.35,.54,.52-.34-.01-.68-.03-1.01-.05-.02-.33-.04-.66-.05-1Zm1.26,1.25c.3,.28,.59,.54,.89,.8-.62,.54-1.23,1.01-1.81,1.42-.12-.7-.21-1.47-.27-2.28,.39,.03,.79,.05,1.19,.06Zm.28,0c.25,0,.5,0,.75,0s.5,0,.75,0c-.25,.23-.5,.46-.75,.67-.25-.22-.5-.44-.75-.67Zm1.78,0c.41-.01,.81-.03,1.19-.06-.06,.82-.15,1.58-.27,2.28-.58-.41-1.19-.89-1.81-1.42,.3-.25,.59-.52,.89-.8Zm.2-.19c.18-.17,.36-.35,.54-.52,.18-.18,.35-.36,.52-.53-.01,.34-.03,.68-.05,1-.33,.02-.66,.04-1.01,.05Zm1.25-1.26c.28-.3,.55-.59,.8-.89,.53,.62,1.01,1.23,1.42,1.8-.7,.12-1.46,.21-2.28,.28,.03-.39,.05-.79,.06-1.19Zm0-.28c0-.25,.01-.5,.01-.75s0-.5-.01-.75c.23,.25,.46,.5,.67,.75-.22,.25-.44,.5-.67,.75Zm0-1.78c-.01-.41-.03-.81-.06-1.2,.82,.06,1.58,.16,2.28,.28-.41,.58-.88,1.18-1.42,1.81-.26-.3-.52-.59-.8-.89Zm-2.48-7.7c.79,0,1.5,1.52,1.91,3.83-.61,.43-1.26,.93-1.91,1.5-.66-.56-1.3-1.07-1.91-1.5,.42-2.31,1.12-3.83,1.91-3.83Zm-6.17,2.55c.56-.56,2.13,.02,4.06,1.36-.13,.74-.23,1.55-.29,2.41-.86,.07-1.67,.17-2.41,.3-1.34-1.93-1.92-3.5-1.35-4.06Zm-2.56,6.17c0-.79,1.52-1.5,3.83-1.91,.43,.61,.93,1.26,1.49,1.91-.56,.66-1.06,1.3-1.49,1.91-2.31-.42-3.83-1.12-3.83-1.91Zm2.56,6.17c-.56-.56,.01-2.13,1.35-4.06,.74,.13,1.55,.23,2.41,.3,.07,.86,.17,1.67,.29,2.41-1.93,1.34-3.5,1.92-4.06,1.36Zm6.17,2.55c-.8,0-1.5-1.52-1.91-3.83,.61-.43,1.25-.93,1.91-1.5,.66,.57,1.3,1.07,1.91,1.5-.42,2.31-1.12,3.83-1.91,3.83Zm6.17-2.55c-.56,.56-2.13-.02-4.06-1.36,.13-.74,.23-1.55,.29-2.41,.86-.06,1.67-.16,2.41-.3,1.34,1.93,1.92,3.5,1.36,4.06Zm-1.27-4.26c-.43-.61-.93-1.26-1.5-1.91,.56-.65,1.07-1.3,1.5-1.91,2.31,.42,3.83,1.12,3.83,1.91s-1.52,1.5-3.83,1.91Zm-1.74,2.93c-.32,0-.58,.26-.58,.58s.26,.58,.58,.58,.58-.26,.58-.58-.26-.58-.58-.58Zm0,1.01c-.24,0-.44-.19-.44-.43s.2-.44,.44-.44,.43,.2,.43,.44-.2,.43-.43,.43Zm0-.26c-.1,0-.18-.08-.18-.17s.08-.17,.18-.17,.17,.08,.17,.17-.08,.17-.17,.17Zm-8.89-4.26c-.32,0-.58,.26-.58,.58s.26,.58,.58,.58,.58-.26,.58-.58-.26-.58-.58-.58Zm0,1.02c-.24,0-.43-.19-.43-.43s.2-.43,.43-.43,.43,.19,.43,.43-.19,.43-.43,.43Zm0-.26c-.1,0-.17-.08-.17-.18s.08-.17,.17-.17,.18,.08,.18,.17-.08,.18-.18,.18Zm7.28-8.89c-.32,0-.58,.26-.58,.58s.26,.58,.58,.58,.58-.26,.58-.58-.26-.58-.58-.58Zm0,1.01c-.24,0-.43-.2-.43-.44s.19-.43,.43-.43,.44,.2,.44,.43-.2,.44-.44,.44Zm0-.26c-.1,0-.17-.08-.17-.17s.08-.17,.17-.17,.18,.08,.18,.17-.08,.17-.18,.17Zm-1.59,5.19c-.5,0-.91,.41-.91,.91s.41,.92,.91,.92,.92-.41,.92-.92-.41-.91-.92-.91Zm-.57,1.3c-.08-.11-.12-.24-.12-.39,0-.38,.3-.68,.68-.68s.69,.31,.69,.68c0,.16-.05,.3-.14,.42-.22,.19-.46-.06-1.11-.03Zm.79-.39c-.1,0-.19-.08-.19-.19s.08-.19,.19-.19,.19,.09,.19,.19-.08,.19-.19,.19Z"/>
    <path class="cls-1" d="M49.81,.07C28.87-1.22,10.86,14.71,9.57,35.64c-1.29,20.93,14.64,38.95,35.57,40.24,20.94,1.29,38.95-14.64,40.24-35.57C86.67,19.38,70.75,1.36,49.81,.07Zm-4.61,74.81c-20.38-1.26-35.89-18.8-34.63-39.18C11.82,15.32,29.37-.18,49.75,1.07c20.38,1.26,35.89,18.8,34.63,39.18-1.25,20.38-18.8,35.89-39.18,34.63Z"/>
    <path class="cls-1" d="M22.54,23.97l-3.74-.48,2.67,2.69,.45,.04-.58,1.03-.12-.52-4.25-4.63,6.24,.93,.53-.22-.96,1.53-.24-.39Zm11.21,39.67l-1.58-.88,.25,.51-.57,6.29,4.38-4.5,.51-.15-1.07-.52-.02,.45-2.54,2.82,.27-3.76,.37-.26Zm42.19-20.98l-.34,1.77,.41-.39,6.15-1.43-5.65-2.74-.31-.44-.15,1.18,.43-.12,3.48,1.53-3.66,.93-.37-.27Zm-56.71-8.46l.33-1.77-.41,.4-6.15,1.44,5.66,2.73,.31,.44,.15-1.17-.43,.12-3.48-1.52,3.65-.93,.37,.27Zm26.43,38.9l-.27-.57,.32-3.57,2.61,4.27,.19-5.8,.26-.51-1.14-.02,.22,.55-.05,3.1-2.38-3.83-.54,5.78-.3,.54,1.07,.07ZM15.26,25.63l.63-.06,3.25,1.5-4.9,1.02,5.4,2.14,.4,.42,.4-1.07-.59,.02-2.9-1.09,4.41-.94-5.26-2.47-.41-.47-.42,.99Zm-1.07,3.54l-.4,1.64,.53-.1,4.8,1.08,.58,.42,.35-1.58-.63,.14-4.87-1.25-.37-.35Zm.83,21.28l.61,1.57,.38-.39,4.56-1.86,.72,.02-.62-1.49-.44,.47-4.71,1.76-.5-.07Zm66.94-15.83l-.21-1.67-.46,.29-4.87,.7-.69-.19,.24,1.6,.54-.35,4.99-.56,.47,.2Zm.14,4.46l-.14-3.75s-1.23,.08-1.69,.11c1.27,.51,1.22,2.11,1.22,2.11l-4.7,.03-.64-.29v1.62s.58-.27,.58-.27l4.94,.18,.43,.26Zm-69.18-1.76l.03,3.94s1.82-.02,1.89-.02c.07,0-1.69-.33-1.37-2.15,.57,.01,1.98,.08,1.98,.08,0,0-.34,1.12,.31,1.46-.07-.83,.37-.6,.63-1.52,.46,.02,1.52,.01,2.07,.02,.18,1.46-1.38,1.83-1.38,1.83h1.96s.02-3.24,.02-3.24l-.46,.35-2.37-.15s-.41-.49-.9-.71c.3,.35,.2,.66,.2,.66l-2.39-.15-.23-.4Zm6.46,8.28c-1.03-.46-2.05,.02-2.47,1.28-.19,.72-.09,2.24-1.49,2.01-.07-.05-1.11-.35-.66-1.99,.1-.09,.43-.53,.43-.53l-1.5,.42,.48,.27s-.25,1.5,.74,2.2c1.55,.81,2.67,.03,2.96-1.55,.28-1.23,.47-1.38,.69-1.56,.29-.15,1.4-.31,.99,1.4-.11,.35-.73,.82-.73,.82,0,0,1.11-.14,1.7-.51-.18-.05-.58-.2-.58-.2,0,0,.7-1.4-.55-2.06Zm54.84-18.71c1.11,.19,1.99-.51,2.08-1.85,.01-.74-.46-2.2,.95-2.32,.08,.03,1.16,.06,1.12,1.77-.07,.11-.29,.62-.29,.62l1.36-.78-.53-.14s-.12-1.52-1.26-1.95c-1.7-.41-2.6,.62-2.5,2.22,.03,1.27-.12,1.45-.29,1.69-.25,.22-1.29,.64-1.3-1.12,.02-.36,.51-.97,.51-.97,0,0-1.05,.4-1.52,.91,.19,0,.62,.06,.62,.06,0,0-.34,1.52,1.03,1.86ZM19.43,43.94c-.12,1.76-2.92,1.35-3.13,.8-.4-.66,.11-1.21-.3-1.46-.18,0-.38,0-.52,.01,1.02,2.24-1.16,2.37-1.16,2.37,0,0-.3,.08-.22,.62-.32-.09-.63-.56-.36-1.28,.31-.63,1.39-.52,1.55-.94,.13-.36,.03-.6-.32-.66-1.09-.06-1.44,.46-1.44,.46l-.1,.2-.24-1.93,.42,.3s4.87-.26,5.06-.57c.14-.16,.41-.47,.41-.47,0,0,.14,.7,.14,.98,.02,.61,.27,.99,.23,1.56Zm-.49-.49c-.06-.36-.67-.56-1.35-.45-.68,.12-1.19,.51-1.13,.87,.06,.36,.67,.56,1.35,.45,.69-.12,1.19-.5,1.13-.87Zm56.17-12.37c-.03-1.76,2.79-1.6,3.05-1.06,.46,.62,.02,.98,.4,1.33,.18-.02,2.19-.53,2.19-.53l.35-.37,.33,1.59-.47-.14s-4.74,.85-4.91,1.18c-.13,.18-.37,.51-.37,.51,0,0-.2-.68-.22-.96-.07-.61-.35-.96-.35-1.54Zm.53,.45c.09,.36,.72,.5,1.39,.33,.67-.17,1.14-.6,1.05-.96-.09-.36-.71-.5-1.39-.33-.67,.17-1.15,.61-1.05,.96ZM22.44,53.58c-.25,.14-3.3,1.91-3.74,2.17-.38,.16-.94,.31-1.2-.15-.21-.4-1.48-2.85-1.48-2.85l.73,.1,4.36-2.25,.24-.6s1.04,2.06,1.31,2.61c.23,.47,.03,.81-.22,.96Zm-.61-1.57c-.06-.13-.11-.23-.24-.49l-4.58,2.32c.21,.4,.32,.62,.39,.74,.22,.39,.67,.22,1.01,.08,.38-.22,3.03-1.7,3.24-1.83,.22-.12,.39-.41,.19-.82Zm5.4,7.78c-.21,.2-2.74,2.65-3.11,3.01-.33,.25-.84,.53-1.2,.15-.29-.34-2.12-2.41-2.12-2.41l.73-.08,3.69-3.23,.09-.64s1.51,1.75,1.9,2.22c.34,.4,.23,.78,.02,.98Zm-.97-1.37c-.09-.11-.16-.19-.35-.41l-3.88,3.35c.29,.33,.46,.52,.55,.63,.31,.33,.71,.05,1-.17,.31-.31,2.53-2.38,2.7-2.56,.18-.17,.27-.49-.02-.84Zm-8.36-2.09l.49,.79,.18-.37s1.11-.22,1.46-.29c.1,.98,.73,1.11,.92,1.1-.32-.42,.05-1.02-.19-1.33,.31-.08,1.57-.4,1.57-.4l-2.14,3.26-.46-.03,.89,1.16,.1-.52s3.5-4.71,3.46-4.71c-.04,0-3.34,.85-3.61,.91-.2-.35-.41-.5-.74-.56,.16,.44,.16,.7,.16,.7l-1.52,.32-.57-.02Zm8.34,9.35l.75,.56,.04-.41s.96-.61,1.26-.8c.44,.87,1.08,.77,1.25,.69-.44-.28-.32-.97-.66-1.17,.26-.19,1.31-.94,1.31-.94l-.81,3.82-.44,.14,1.25,.76-.1-.52s1.56-5.66,1.52-5.65c-.04,.01-2.81,2.01-3.04,2.15-.32-.26-.57-.31-.89-.25,.31,.35,.4,.6,.4,.6l-1.3,.84-.54,.18Zm33.95,4.83l.85-.37-.34-.23s-.06-1.13-.07-1.49c.98,.05,1.21-.56,1.22-.75-.46,.25-1.01-.2-1.34,0-.03-.32-.17-1.61-.17-1.61l2.92,2.59-.09,.45,1.27-.72-.5-.17s-4.15-4.15-4.16-4.11c0,.04,.36,3.43,.37,3.71-.38,.15-.56,.34-.66,.65,.46-.1,.71-.05,.71-.05l.09,1.55-.1,.56Zm14.67-10.89l.56-.74-.41-.04s-.61-.96-.79-1.26c.87-.44,.77-1.08,.69-1.25-.27,.45-.97,.32-1.17,.65-.19-.26-.94-1.32-.94-1.32l3.82,.83,.14,.43,.76-1.25-.52,.1s-5.66-1.58-5.64-1.54c.01,.04,2,2.81,2.14,3.04-.26,.32-.32,.56-.26,.89,.35-.31,.59-.39,.59-.39l.84,1.3,.19,.54Zm5.53-10.73l.24-.9-.39,.12s-.92-.67-1.2-.88c.65-.74,.32-1.29,.18-1.42-.09,.52-.79,.66-.84,1.04-.27-.18-1.36-.88-1.36-.88l3.85-.65,.29,.35,.24-1.44-.45,.28s-5.84,.63-5.81,.67c.03,.03,2.9,1.87,3.12,2.03-.12,.39-.09,.64,.09,.92,.21-.41,.41-.59,.41-.59l1.26,.9,.37,.43Zm.5-19.46l-.27-.89-.27,.31s-1.13-.07-1.48-.1c.16-.97-.42-1.26-.61-1.3,.2,.49-.31,.98-.16,1.33-.32,0-1.62-.02-1.62-.02l2.92-2.6,.43,.14-.57-1.35-.23,.48s-4.6,3.64-4.56,3.66c.04,.01,3.45,.04,3.72,.06,.1,.39,.27,.59,.57,.73-.04-.47,.03-.72,.03-.72l1.55,.08,.55,.17Zm-43.36,35.81s-.37,1.05-.49,1.4c.58-.33,1.1-.47,1.57-.46l-1.53,4.78-.37,.34,1.61,.49-.07-.54,1.36-4.73,.03-.04c.43,.26,.8,.68,1.12,1.21,.05-.18,.3-1.45,.3-1.45,0,0-3.33-.94-3.53-1Zm30.53-6.78s.83,.75,1.1,.99c-.09-.66-.01-1.2,.17-1.63l3.82,3.24,.18,.47,1.07-1.3-.53-.14-3.85-3.07-.02-.05c.41-.3,.94-.49,1.55-.57-.14-.11-1.23-.83-1.23-.83,0,0-2.14,2.71-2.28,2.88Zm-11.7,11.23l-3.38-3.59,.87,5.75-.16,.6,1.06-.2-.4-.49-.55-3.54,2.74,3.42,.62-4.02,1.1,3.2-.12,.57,1.6-.56-.49-.21-2.08-5.52-.8,4.59Zm20.78-18.33l-4.91,.43,5.04,2.88,.37,.5,.5-.95h-.63s-3.12-1.75-3.12-1.75l4.38-.03-2.77-2.98,3.19,1.12,.37,.45,.55-1.6-.47,.26-5.62-1.79,3.11,3.47Zm-8.12,14.04c-.36,.27-2.58,1.91-2.58,1.91v-.74s-1.07-1.43-1.07-1.43c-.27,.02-.5,.07-.61,.32-.03-.4,.06-.66,.22-.85l-1.46-1.99-.63-.14s1.88-1.36,2.37-1.7c.43-.3,.8-.16,.98,.06,.18,.22,2.4,2.96,2.73,3.35,.22,.35,.46,.88,.04,1.21Zm-1.08-.74c-.28-.34-2.16-2.72-2.32-2.91-.16-.19-.47-.31-.84-.06-.12,.08-.2,.15-.44,.32l1.55,2.14c.34-.11,.68-.24,.89-.54-.02,.67-.16,1.05-.37,1.25l.94,1.3c.36-.27,.56-.42,.67-.5,.35-.28,.11-.7-.08-1.01Zm-15.13,6.69c-.8,.43-1.81-1.14-3.11,.51,1.05-.35,2.42,.62,3.11-.51Zm-.19-2.43c-.06,.99-.89,1.75-1.85,1.69-.96-.06-1.69-.91-1.62-1.9,.06-.99,.89-1.75,1.85-1.69,.96,.06,1.69,.91,1.63,1.9Zm-.97,.27l-.15-.84c-.08-.45-.45-.76-.82-.69-.37,.07-.6,.49-.52,.94l.15,.84c.08,.45,.45,.76,.82,.7,.37-.07,.6-.49,.52-.94Zm-7.77,2.31c-.9,.17-1.39-1.63-3.13-.46,1.11-.02,2.12,1.32,3.13,.46Zm.55-2.37c-.36,.93-1.38,1.4-2.27,1.05-.9-.34-1.33-1.38-.98-2.3,.36-.93,1.38-1.4,2.27-1.05,.9,.35,1.33,1.38,.98,2.31Zm-1.01-.03l.11-.85c.06-.46-.2-.86-.57-.91-.37-.05-.72,.28-.78,.73l-.11,.84c-.06,.45,.2,.86,.57,.91,.37,.05,.72-.28,.78-.73Z"/>
  </g>
  <g>
    <path class="cls-1" d="M1.94,78.41v.14c-.21,.01-.34,.03-.4,.05-.06,.02-.09,.08-.09,.18,0,.03,0,.06,0,.08,0,.03,.01,.05,.03,.08l.92,2.14h0l.76-1.96s.03-.09,.05-.13c.02-.07,.03-.13,.03-.18,0-.11-.03-.18-.1-.2-.07-.03-.2-.05-.4-.06v-.14h1.23v.14c-.14,.02-.25,.06-.32,.12-.07,.07-.14,.18-.2,.35l-1.32,3.39h-.15l-1.49-3.46c-.06-.14-.12-.24-.18-.3-.06-.06-.16-.1-.29-.11v-.14H1.94Z"/>
    <path class="cls-1" d="M4.45,82.32v-.15c.17,0,.28-.03,.35-.07,.11-.06,.16-.17,.16-.34v-2.8c0-.17-.06-.28-.17-.34-.06-.03-.18-.06-.35-.07v-.15h3.33v1.17h-.14c-.07-.37-.2-.63-.37-.76-.18-.14-.5-.21-.96-.21-.18,0-.29,.02-.34,.05-.05,.04-.07,.11-.07,.22v1.34c.33,0,.55-.06,.67-.18,.12-.12,.21-.35,.27-.67h.15v1.95h-.15c-.04-.33-.13-.56-.25-.7-.13-.13-.36-.2-.68-.2v1.4c0,.12,.03,.21,.09,.25,.06,.04,.19,.07,.39,.07,.37,0,.67-.07,.9-.21,.23-.14,.44-.41,.62-.8h.16l-.23,1.2h-3.38Z"/>
    <path class="cls-1" d="M8.58,82.17c.19,0,.33-.05,.4-.11,.07-.06,.11-.2,.11-.42v-2.56c0-.22-.04-.37-.13-.43-.06-.04-.18-.08-.38-.09v-.15h1.86c.39,0,.7,.04,.94,.12,.46,.16,.69,.46,.69,.88,0,.31-.12,.56-.36,.74-.19,.14-.38,.22-.59,.26l1.23,1.64s.07,.08,.1,.09c.04,.01,.08,.02,.13,.03v.14h-1.21l-1.35-1.81h0v1.13c0,.2,.03,.34,.1,.41,.07,.07,.2,.11,.41,.12v.15h-1.95v-.15Zm2.25-2c.16-.1,.24-.33,.24-.7,0-.22-.03-.4-.09-.53-.11-.22-.3-.33-.59-.33-.15,0-.26,.02-.3,.06-.05,.04-.07,.1-.07,.19v1.47c.38,0,.65-.06,.81-.16Z"/>
    <path class="cls-1" d="M13.01,82.17c.14,0,.25-.03,.31-.06,.11-.06,.17-.16,.17-.32v-2.85c0-.15-.05-.25-.16-.31-.06-.03-.17-.06-.32-.07v-.15h1.77c.71,0,1.26,.19,1.63,.57,.34,.35,.51,.81,.51,1.39,0,.52-.17,.96-.51,1.33-.39,.41-.91,.61-1.57,.61h-1.82v-.15Zm1.48-.13c.04,.05,.12,.08,.25,.08,.34,0,.62-.12,.84-.36,.22-.24,.33-.71,.33-1.39,0-.41-.06-.76-.18-1.05-.19-.47-.52-.71-.97-.71-.15,0-.25,.03-.29,.1-.03,.04-.05,.12-.05,.24v2.84c0,.12,.03,.2,.07,.26Z"/>
    <path class="cls-1" d="M17.49,82.17c.14,0,.25-.07,.33-.19,.06-.07,.13-.23,.24-.48l1.28-3.16h.16l1.29,3.04c.14,.34,.25,.56,.32,.66,.07,.1,.17,.15,.31,.14v.15h-1.87v-.15c.19,0,.31-.02,.37-.05,.06-.02,.09-.09,.09-.19,0-.05-.02-.11-.05-.21-.02-.05-.04-.12-.08-.2l-.15-.35h-1.3c-.08,.23-.14,.38-.16,.45-.05,.15-.08,.26-.08,.32,0,.08,.06,.14,.17,.18,.06,.02,.16,.03,.3,.03v.15h-1.18v-.15Zm2.17-1.22l-.56-1.34h-.05l-.52,1.34h1.12Z"/>
    <path class="cls-1" d="M21.91,82.17c.14,0,.25-.03,.31-.06,.11-.06,.17-.16,.17-.32v-2.85c0-.15-.05-.25-.16-.31-.06-.03-.17-.06-.32-.07v-.15h1.76c.71,0,1.26,.19,1.63,.57,.34,.35,.51,.81,.51,1.39,0,.52-.17,.96-.51,1.33-.39,.41-.91,.61-1.57,.61h-1.82v-.15Zm1.48-.13c.04,.05,.12,.08,.25,.08,.34,0,.62-.12,.84-.36,.22-.24,.33-.71,.33-1.39,0-.41-.06-.76-.18-1.05-.19-.47-.51-.71-.97-.71-.15,0-.25,.03-.29,.1-.03,.04-.05,.12-.05,.24v2.84c0,.12,.03,.2,.07,.26Z"/>
    <path class="cls-1" d="M26.78,83.23c.17-.12,.31-.23,.4-.32,.16-.16,.23-.3,.23-.44,0-.04,0-.07-.03-.1-.02-.02-.05-.03-.09-.03-.02,0-.04,0-.07,0-.03,0-.05,0-.05,0-.13,0-.23-.04-.31-.12-.08-.08-.13-.19-.13-.33,0-.15,.05-.26,.13-.35,.09-.09,.2-.14,.34-.14,.17,0,.31,.06,.42,.18,.11,.12,.17,.28,.17,.49,0,.31-.12,.59-.37,.85-.14,.14-.33,.28-.58,.42l-.07-.13Z"/>
    <path class="cls-1" d="M29.81,82.17c.16,0,.27-.03,.34-.06,.11-.06,.17-.18,.17-.34v-2.8c0-.17-.05-.28-.16-.34-.06-.03-.18-.06-.35-.07v-.15h1.78c.34,0,.63,.04,.86,.12,.43,.15,.64,.42,.64,.81,0,.24-.09,.43-.26,.57-.17,.14-.36,.23-.57,.27v.05c.22,.04,.4,.11,.56,.21,.31,.19,.46,.46,.46,.8,0,.32-.15,.58-.44,.78-.3,.2-.69,.3-1.18,.3h-1.86v-.15Zm2.15-2.18c.12-.12,.18-.32,.18-.62,0-.22-.04-.41-.12-.56-.08-.15-.23-.23-.46-.23-.12,0-.2,.02-.25,.06-.05,.04-.07,.11-.07,.22v1.3c.36,0,.6-.06,.72-.17Zm-.67,2.02c.05,.08,.14,.12,.27,.12,.27,0,.46-.07,.58-.22,.11-.15,.17-.36,.17-.63,0-.41-.12-.68-.36-.82-.15-.08-.38-.12-.69-.12v1.44c0,.1,.02,.18,.05,.22Z"/>
    <path class="cls-1" d="M33.94,82.32v-.15c.17,0,.28-.03,.35-.07,.11-.06,.16-.17,.16-.34v-2.8c0-.17-.06-.28-.17-.34-.06-.03-.18-.06-.35-.07v-.15h3.33v1.17h-.14c-.07-.37-.2-.63-.37-.76-.18-.14-.5-.21-.96-.21-.18,0-.29,.02-.34,.05-.05,.04-.07,.11-.07,.22v1.34c.33,0,.55-.06,.67-.18,.12-.12,.2-.35,.27-.67h.15v1.95h-.15c-.04-.33-.12-.56-.25-.7-.13-.13-.36-.2-.68-.2v1.4c0,.12,.03,.21,.09,.25,.06,.04,.19,.07,.39,.07,.37,0,.67-.07,.9-.21,.23-.14,.44-.41,.62-.8h.16l-.23,1.2h-3.38Z"/>
    <path class="cls-1" d="M38.08,82.17c.16,0,.27-.03,.34-.06,.12-.06,.17-.18,.17-.34v-2.8c0-.17-.05-.28-.16-.34-.06-.03-.18-.06-.35-.07v-.15h2.02v.15c-.23,0-.39,.04-.47,.1-.08,.06-.12,.2-.12,.43v2.73c0,.13,.03,.21,.1,.25,.07,.04,.2,.06,.39,.06,.35,0,.64-.08,.88-.23,.24-.15,.44-.45,.61-.9h.17l-.23,1.31h-3.34v-.15Z"/>
    <path class="cls-1" d="M42.21,82.17c.16,0,.27-.03,.34-.06,.11-.06,.17-.18,.17-.34v-2.8c0-.17-.05-.28-.16-.34-.06-.03-.18-.06-.35-.07v-.15h2.02v.15c-.23,0-.39,.04-.47,.1-.08,.06-.12,.2-.12,.43v2.73c0,.13,.03,.21,.1,.25,.07,.04,.2,.06,.39,.06,.35,0,.64-.08,.88-.23,.24-.15,.44-.45,.61-.9h.17l-.23,1.31h-3.34v-.15Z"/>
    <path class="cls-1" d="M46.33,82.32v-.15c.17,0,.28-.03,.35-.07,.11-.06,.16-.17,.16-.34v-2.8c0-.17-.06-.28-.17-.34-.06-.03-.18-.06-.35-.07v-.15h3.33v1.17h-.14c-.07-.37-.2-.63-.37-.76-.18-.14-.5-.21-.96-.21-.18,0-.29,.02-.34,.05-.05,.04-.07,.11-.07,.22v1.34c.33,0,.55-.06,.67-.18,.12-.12,.2-.35,.27-.67h.15v1.95h-.15c-.04-.33-.13-.56-.25-.7-.13-.13-.35-.2-.69-.2v1.4c0,.12,.03,.21,.09,.25,.06,.04,.19,.07,.39,.07,.37,0,.67-.07,.9-.21,.23-.14,.44-.41,.62-.8h.16l-.23,1.2h-3.38Z"/>
    <path class="cls-1" d="M50.53,82.22l2.25-3.61c-.44,0-.71,0-.8,.01-.08,0-.16,.02-.23,.04-.25,.05-.45,.16-.59,.35-.09,.11-.18,.31-.29,.59h-.16l.12-1.19h3.07v.09l-2.23,3.61c.8,0,1.34-.06,1.61-.18,.28-.12,.49-.46,.64-1.01h.15l-.15,1.39h-3.39v-.09Z"/>
    <path class="cls-1" d="M54.6,82.17c.14,0,.25-.07,.34-.19,.06-.07,.13-.23,.23-.48l1.28-3.16h.16l1.29,3.04c.14,.34,.25,.56,.32,.66,.07,.1,.17,.15,.3,.14v.15h-1.87v-.15c.19,0,.31-.02,.37-.05,.06-.02,.09-.09,.09-.19,0-.05-.02-.11-.04-.21-.02-.05-.05-.12-.08-.2l-.15-.35h-1.3c-.08,.23-.14,.38-.16,.45-.05,.15-.08,.26-.08,.32,0,.08,.06,.14,.17,.18,.07,.02,.17,.03,.3,.03v.15h-1.18v-.15Zm2.17-1.22l-.56-1.34h-.05l-.52,1.34h1.13Z"/>
    <path class="cls-1" d="M59.45,83.23c.17-.12,.3-.23,.39-.32,.16-.16,.24-.3,.24-.44,0-.04-.01-.07-.03-.1-.02-.02-.05-.03-.09-.03-.02,0-.04,0-.07,0-.03,0-.05,0-.05,0-.13,0-.22-.04-.31-.12-.08-.08-.13-.19-.13-.33,0-.15,.04-.26,.13-.35,.09-.09,.2-.14,.34-.14,.17,0,.31,.06,.42,.18,.11,.12,.17,.28,.17,.49,0,.31-.12,.59-.37,.85-.14,.14-.33,.28-.58,.42l-.07-.13Z"/>
    <path class="cls-1" d="M62.48,82.17c.19-.01,.32-.05,.38-.12,.06-.07,.1-.2,.1-.41v-2.56c0-.22-.03-.35-.1-.41-.07-.06-.19-.1-.38-.12v-.15h1.86c.49,0,.87,.08,1.12,.24,.26,.16,.39,.43,.39,.82,0,.19-.05,.37-.15,.53-.1,.17-.27,.3-.5,.4-.18,.07-.35,.11-.53,.13-.17,.02-.43,.02-.78,.02v1.08c0,.21,.03,.35,.11,.42,.07,.07,.21,.1,.4,.11v.15h-1.92v-.15Zm2.1-1.92c.18-.12,.27-.37,.27-.75,0-.26-.04-.48-.13-.64-.09-.16-.26-.24-.51-.24-.12,0-.2,.01-.25,.04-.05,.03-.08,.08-.08,.16v1.55c.34,0,.57-.05,.69-.12Z"/>
    <path class="cls-1" d="M66.29,82.17c.2,0,.33-.05,.4-.11,.07-.06,.1-.2,.1-.42v-2.56c0-.22-.04-.37-.12-.43-.06-.04-.18-.08-.38-.09v-.15h1.86c.39,0,.7,.04,.94,.12,.46,.16,.69,.46,.69,.88,0,.31-.12,.56-.36,.74-.18,.14-.38,.22-.59,.26l1.23,1.64s.06,.08,.1,.09c.04,.01,.08,.02,.13,.03v.14h-1.2l-1.35-1.81h0v1.13c0,.2,.03,.34,.1,.41,.07,.07,.2,.11,.41,.12v.15h-1.95v-.15Zm2.25-2c.16-.1,.24-.33,.24-.7,0-.22-.03-.4-.09-.53-.11-.22-.3-.33-.59-.33-.15,0-.26,.02-.3,.06-.05,.04-.07,.1-.07,.19v1.47c.38,0,.65-.06,.81-.16Z"/>
    <path class="cls-1" d="M74.34,78.89c.4,.39,.6,.88,.6,1.49s-.2,1.1-.6,1.49c-.39,.38-.87,.57-1.45,.57-.62,0-1.12-.21-1.51-.62-.36-.39-.55-.86-.55-1.41,0-.6,.19-1.1,.57-1.49,.39-.39,.88-.59,1.49-.59s1.07,.19,1.45,.56Zm-.56,2.58c.09-.28,.13-.64,.13-1.09,0-.61-.09-1.08-.28-1.39-.18-.31-.43-.47-.75-.47-.44,0-.74,.26-.9,.78-.08,.28-.13,.64-.13,1.08s.04,.81,.13,1.09c.16,.51,.46,.77,.89,.77s.73-.26,.89-.77Z"/>
    <path class="cls-1" d="M75.51,82.17c.16,0,.27-.03,.33-.06,.12-.06,.17-.18,.17-.34v-2.8c0-.17-.06-.28-.16-.34-.06-.03-.18-.06-.35-.07v-.15h1.78c.35,0,.63,.04,.86,.12,.43,.15,.64,.42,.64,.81,0,.24-.09,.43-.26,.57-.17,.14-.36,.23-.57,.27v.05c.21,.04,.4,.11,.56,.21,.31,.19,.46,.46,.46,.8,0,.32-.15,.58-.44,.78-.3,.2-.69,.3-1.18,.3h-1.86v-.15Zm2.15-2.18c.12-.12,.18-.32,.18-.62,0-.22-.04-.41-.12-.56-.08-.15-.23-.23-.46-.23-.12,0-.2,.02-.25,.06-.05,.04-.07,.11-.07,.22v1.3c.36,0,.6-.06,.72-.17Zm-.67,2.02c.05,.08,.14,.12,.27,.12,.27,0,.46-.07,.57-.22,.11-.15,.17-.36,.17-.63,0-.41-.12-.68-.37-.82-.15-.08-.38-.12-.69-.12v1.44c0,.1,.02,.18,.04,.22Z"/>
    <path class="cls-1" d="M79.64,82.17c.16,0,.28-.02,.35-.06,.12-.06,.18-.18,.18-.35v-2.8c0-.17-.06-.28-.17-.34-.07-.04-.19-.06-.36-.06v-.15h2.02v.15c-.18,0-.3,.03-.37,.06-.11,.06-.17,.17-.17,.34v2.8c0,.16,.05,.27,.14,.32,.09,.05,.23,.08,.41,.08v.15h-2.02v-.15Z"/>
    <path class="cls-1" d="M82.15,82.17c.15,0,.25-.03,.31-.06,.11-.06,.17-.16,.17-.32v-2.85c0-.15-.05-.25-.16-.31-.06-.03-.17-.06-.32-.07v-.15h1.76c.71,0,1.26,.19,1.63,.57,.34,.35,.51,.81,.51,1.39,0,.52-.17,.96-.51,1.33-.39,.41-.91,.61-1.57,.61h-1.82v-.15Zm1.48-.13c.04,.05,.12,.08,.25,.08,.34,0,.62-.12,.84-.36,.22-.24,.33-.71,.33-1.39,0-.41-.06-.76-.18-1.05-.19-.47-.51-.71-.97-.71-.15,0-.25,.03-.29,.1-.03,.04-.04,.12-.04,.24v2.84c0,.12,.03,.2,.07,.26Z"/>
    <path class="cls-1" d="M86.62,82.17c.14,0,.25-.07,.34-.19,.06-.07,.13-.23,.23-.48l1.28-3.16h.16l1.29,3.04c.14,.34,.25,.56,.32,.66,.07,.1,.17,.15,.3,.14v.15h-1.87v-.15c.19,0,.31-.02,.37-.05,.06-.02,.09-.09,.09-.19,0-.05-.01-.11-.05-.21-.02-.05-.04-.12-.08-.2l-.15-.35h-1.3c-.08,.23-.14,.38-.16,.45-.05,.15-.08,.26-.08,.32,0,.08,.06,.14,.17,.18,.06,.02,.16,.03,.3,.03v.15h-1.18v-.15Zm2.17-1.22l-.55-1.34h-.05l-.52,1.34h1.12Z"/>
    <path class="cls-1" d="M91.04,82.17c.14,0,.25-.03,.31-.06,.11-.06,.17-.16,.17-.32v-2.85c0-.15-.05-.25-.16-.31-.06-.03-.17-.06-.32-.07v-.15h1.77c.71,0,1.26,.19,1.63,.57,.34,.35,.51,.81,.51,1.39,0,.52-.17,.96-.51,1.33-.38,.41-.91,.61-1.57,.61h-1.82v-.15Zm1.48-.13c.04,.05,.12,.08,.25,.08,.34,0,.62-.12,.84-.36,.22-.24,.33-.71,.33-1.39,0-.41-.06-.76-.18-1.05-.19-.47-.52-.71-.97-.71-.15,0-.25,.03-.29,.1-.03,.04-.05,.12-.05,.24v2.84c0,.12,.03,.2,.07,.26Z"/>
  </g>
</svg>